<svg xmlns="http://www.w3.org/2000/svg" width="777" height="321" viewBox="0 0 777 321" version="1.1"><path d="M 107.500 9.738 C 105.850 9.980, 104.050 10.545, 103.500 10.995 C 102.950 11.445, 100.250 12.118, 97.500 12.490 C 80.142 14.841, 51 42.167, 51 56.092 C 51 57.185, 50.100 59.844, 49 62 C 47.900 64.156, 47 67.652, 47 69.769 C 47 71.886, 46.339 74.491, 45.532 75.559 C 44.591 76.803, 44.052 79.898, 44.032 84.179 C 44.008 89.159, 43.558 91.299, 42.261 92.596 C 41.014 93.843, 40.418 96.402, 40.153 101.634 C 39.920 106.262, 39.275 109.357, 38.392 110.089 C 37.510 110.821, 37 113.267, 37 116.762 C 37 120.794, 36.544 122.613, 35.305 123.519 C 34.075 124.418, 33.506 126.643, 33.230 131.629 C 33.021 135.408, 32.209 139.918, 31.425 141.651 C 30.641 143.384, 30 147.363, 30 150.493 C 30 154.670, 29.468 156.861, 28 158.727 C 26.468 160.675, 25.993 162.817, 25.968 167.885 C 25.948 172.110, 25.406 175.201, 24.468 176.441 C 23.661 177.509, 23 180.398, 23 182.862 C 23 185.563, 22.365 188.044, 21.403 189.108 C 20.351 190.269, 19.701 193.203, 19.500 197.686 C 19.333 201.434, 18.480 205.850, 17.604 207.500 C 16.681 209.240, 16.010 212.929, 16.006 216.285 C 16.002 219.870, 15.398 222.990, 14.416 224.488 C -0.200 246.794, 26.963 269.165, 69.333 269.715 L 96.166 270.063 106.085 266.420 C 121.211 260.864, 132 249.320, 132 238.692 C 132 236.356, 132.695 233.452, 133.545 232.239 C 134.395 231.026, 135.362 227.663, 135.694 224.766 C 136.025 221.870, 136.905 218.612, 137.648 217.527 C 138.419 216.404, 139 212.945, 139 209.489 C 139 205.397, 139.651 202.146, 141 199.500 C 142.100 197.342, 143.007 193.985, 143.015 192.039 C 143.026 189.493, 143.938 187.461, 146.265 184.797 L 149.500 181.093 166 180.439 C 177.228 179.994, 182.979 179.371, 184 178.491 C 184.825 177.779, 187.863 177.040, 190.751 176.848 L 196.001 176.500 196.001 181.785 C 196 184.895, 195.356 188.053, 194.436 189.458 C 193.575 190.771, 192.637 194.467, 192.351 197.673 C 192.065 200.878, 191.194 205.197, 190.415 207.270 C 188.541 212.264, 188.592 223.695, 190.506 227.364 C 191.328 228.940, 192 232.187, 192 234.580 C 192 237.935, 192.655 239.682, 194.861 242.215 C 196.435 244.022, 198.484 246.986, 199.415 248.803 C 200.345 250.620, 202.974 253.974, 205.256 256.256 L 209.405 260.405 209.826 272.453 C 210.507 291.912, 220.547 308, 232.010 308 C 233.159 308, 235.539 308.777, 237.300 309.728 C 242.240 312.395, 335.779 312.415, 338.724 309.750 C 339.942 308.647, 342.268 308, 345.014 308 C 350.939 308, 377 294.140, 377 290.989 C 377 290.518, 379.199 287.393, 381.886 284.045 C 384.573 280.697, 388.060 275.230, 389.636 271.898 L 392.500 265.838 398.978 266.470 C 402.541 266.818, 406.176 267.754, 407.057 268.551 C 409.452 270.719, 461.177 270.696, 462.978 268.526 C 463.651 267.716, 465.828 266.748, 467.817 266.375 C 474.167 265.183, 479.749 262.093, 483.678 257.594 C 489.629 250.780, 495 239.196, 495 233.177 C 495 231.014, 495.613 228.736, 496.362 228.115 C 497.111 227.493, 497.966 224.316, 498.261 221.055 C 498.557 217.793, 499.519 214.097, 500.400 212.840 C 501.446 211.346, 502 208.424, 502 204.400 C 502 200.149, 502.464 197.860, 503.500 197 C 504.571 196.111, 505 193.761, 505 188.785 C 505 183.330, 505.435 181.263, 507 179.273 C 508.327 177.585, 509.011 175.178, 509.032 172.115 C 509.049 169.577, 509.724 166.626, 510.532 165.559 C 511.468 164.322, 512 161.297, 512 157.217 C 512 152.330, 512.473 150.214, 514 148.273 C 515.542 146.313, 516 144.214, 516.002 139.115 C 516.004 128.970, 520.514 125, 532.035 125 C 543.639 125, 547.992 129.962, 543 137.500 C 541.516 139.741, 541.012 142.196, 541.007 147.200 C 541.001 152.537, 540.644 154.100, 539.250 154.882 C 537.850 155.667, 537.500 157.228, 537.500 162.682 C 537.500 167.567, 537.004 170.201, 535.750 171.973 C 534.629 173.556, 534 176.299, 534 179.600 C 534 182.962, 533.478 185.188, 532.500 186 C 531.391 186.921, 531 189.372, 531 195.411 C 531 201.603, 530.516 204.526, 529 207.500 C 526.204 212.984, 526.204 223.719, 529 227.273 C 530.414 229.071, 531 231.330, 531 234.985 C 531 239.395, 531.440 240.594, 534 243.154 C 535.650 244.804, 537 246.793, 537 247.574 C 537 252.434, 548.727 260.672, 563.872 266.451 L 573.172 270 639.106 270 L 705.040 270 713.770 265.586 C 730.983 256.883, 736.096 248.797, 736.752 229.244 L 737.197 215.989 741.649 207.262 C 744.098 202.463, 746.367 196.503, 746.691 194.018 C 747.016 191.533, 747.832 188.375, 748.505 187 C 749.177 185.625, 750.026 182.166, 750.390 179.314 C 750.754 176.462, 751.712 172.862, 752.520 171.314 C 753.327 169.766, 754.005 166.025, 754.026 163 C 754.048 159.767, 754.669 156.700, 755.532 155.559 C 756.449 154.347, 757 151.336, 757 147.544 C 757 143.381, 757.629 140.297, 759 137.739 C 760.350 135.219, 761 132.097, 761 128.126 C 761 124.118, 761.478 121.848, 762.500 121 C 763.726 119.983, 764 116.645, 764 102.741 L 764 85.726 759.924 77.344 C 753.432 63.993, 741.373 54, 731.755 54 C 729.900 54, 727.509 53.339, 726.441 52.532 C 723.484 50.295, 601.855 50.265, 600 52.500 C 599.263 53.388, 597.070 54.003, 594.628 54.006 C 592.357 54.010, 589.211 54.685, 587.636 55.506 C 583.895 57.457, 573.105 57.457, 569.364 55.506 C 567.789 54.685, 565.588 54.010, 564.473 54.006 C 563.357 54.003, 561.470 53.317, 560.278 52.482 C 558.395 51.163, 551.444 51.003, 507.305 51.263 C 450.156 51.599, 454.858 51.021, 437.254 59.872 C 427.756 64.648, 424.903 64.937, 420.859 61.535 C 417.396 58.621, 408.479 54, 406.319 54 C 405.485 54, 403.347 53.309, 401.568 52.465 C 398.871 51.186, 394.274 50.984, 373.917 51.253 C 347.558 51.601, 348.085 51.511, 334.205 58.039 C 325.362 62.199, 322.414 61.935, 311.405 56 L 302.130 51 278.078 51 L 254.027 51 252.424 47.250 C 251.543 45.188, 250.472 41.250, 250.045 38.500 C 247.964 25.113, 239.544 16.236, 223.940 10.980 C 218.345 9.095, 119.136 8.037, 107.500 9.738 M 114.500 35.025 C 98.188 35.965, 92.388 38.431, 83.298 48.292 C 75.235 57.039, 75.510 56.122, 63.017 116 C 54.813 155.316, 45.859 197.792, 39.512 227.500 C 38.219 233.550, 36.863 239.968, 36.498 241.763 L 35.835 245.026 70.634 244.763 L 105.434 244.500 106.625 240 C 107.280 237.525, 111.484 218.175, 115.967 197 C 120.451 175.825, 124.478 157.825, 124.917 157 C 125.591 155.735, 130.464 155.422, 156.072 155 L 186.428 154.500 188.651 143 C 189.873 136.675, 190.902 130.713, 190.937 129.750 C 190.996 128.121, 188.923 128, 160.872 128 L 130.744 128 131.413 123.750 C 132.180 118.877, 143.783 65.135, 144.472 63.262 C 144.822 62.312, 154.089 61.962, 184.207 61.762 L 223.486 61.500 225.876 48.641 C 227.745 38.583, 227.993 35.614, 227.019 35.011 C 225.481 34.061, 131.035 34.073, 114.500 35.025 M 243.069 79.750 C 242.100 83.356, 237.933 102.766, 228.526 147.500 C 226.097 159.050, 222.005 178.175, 219.433 190 C 208.182 241.723, 211.352 245, 272.636 245 C 304.706 245, 306.998 245.117, 306.976 246.750 C 306.954 248.287, 306.281 251.784, 304.476 259.737 L 303.969 261.973 270.734 262.237 L 237.500 262.500 235.421 271 C 234.278 275.675, 233.049 280.977, 232.690 282.783 L 232.037 286.065 286.768 285.783 L 341.500 285.500 347 282.903 C 364.724 274.533, 367.849 267.666, 379.035 212.500 C 382.380 196, 386.923 174.175, 389.129 164 C 391.335 153.825, 394.436 139.200, 396.021 131.500 C 397.605 123.800, 400.721 108.950, 402.946 98.500 C 405.170 88.050, 406.993 78.713, 406.995 77.750 C 407 76.120, 404.834 76, 375.475 76 L 343.950 76 343.095 78.250 C 342.625 79.487, 339.902 91.975, 337.045 106 C 334.188 120.025, 331.441 133.095, 330.942 135.045 C 330.442 136.995, 328.686 145.095, 327.038 153.045 C 325.391 160.995, 323.358 170.650, 322.520 174.500 C 321.682 178.350, 319.645 188.025, 317.993 196 C 316.342 203.975, 314.430 212.750, 313.745 215.500 L 312.500 220.500 295.250 220.774 C 282.467 220.976, 278 220.740, 278 219.862 C 278 219.210, 279.781 210.312, 281.958 200.089 C 294.755 139.993, 306.041 86.609, 307.610 78.750 L 308.159 76 276.118 76 L 244.077 76 243.069 79.750 M 460 76.692 C 440.469 79.970, 436.103 86.695, 427.642 126.539 C 417.409 174.731, 403 243.587, 403 244.296 C 403 244.683, 417.383 245, 434.961 245 L 466.923 245 467.903 241.250 C 468.442 239.188, 473.224 217.250, 478.529 192.500 C 492.289 128.301, 493.962 120.396, 495.559 112 C 496.344 107.875, 497.223 103.487, 497.512 102.250 L 498.038 100 529.452 100 C 558.494 100, 560.906 99.868, 561.412 98.250 C 561.933 96.582, 566 77.205, 566 76.390 C 566 75.866, 463.177 76.159, 460 76.692 M 599.994 77.423 C 593.927 79.100, 591.506 80.492, 586.266 85.322 C 578.998 92.022, 577.393 96.119, 572.491 120.500 C 571.053 127.650, 566.998 147, 563.479 163.500 C 550.226 225.640, 550.052 229.693, 560.257 238.653 C 567.079 244.643, 565.110 244.500, 640.988 244.500 L 710.476 244.500 712.200 235.500 C 713.149 230.550, 713.942 225.262, 713.962 223.750 L 714 221 665 221 C 638.050 221, 616 220.636, 616 220.190 C 616 218.082, 620.350 202.352, 621.238 201.250 C 622.019 200.281, 633.212 200, 671.063 200 C 697.914 200, 720.122 199.611, 720.416 199.136 C 720.709 198.662, 722.119 192.249, 723.548 184.886 C 724.977 177.524, 729.489 155.391, 733.573 135.702 C 746.687 72.489, 750.760 75.957, 663.568 76.089 C 619.769 76.156, 603.335 76.501, 599.994 77.423 M 166.124 88.750 C 164.638 89.989, 163.836 92.179, 163.375 96.250 L 162.725 102 172.627 102 C 180.619 102, 183.250 102.386, 186.261 104 C 188.314 105.100, 191.077 106, 192.402 106 C 193.727 106, 196.696 107.575, 199 109.500 C 203.341 113.127, 209 114.335, 209 111.635 C 209 110.884, 209.900 109.126, 211 107.727 C 212.667 105.608, 213 103.670, 213 96.092 L 213 87 190.611 87 C 170.754 87, 167.984 87.198, 166.124 88.750 M 641.501 102.250 C 641.026 104.240, 627.849 166.214, 626.405 173.250 L 625.841 176 643.235 176 L 660.628 176 663.290 164.250 C 667.909 143.861, 676 104.299, 676 102.106 C 676 98.682, 642.319 98.823, 641.501 102.250" stroke="none" fill="#050504" fill-rule="evenodd"/><path d="M 114.500 35.025 C 98.188 35.965, 92.388 38.431, 83.298 48.292 C 75.235 57.039, 75.510 56.122, 63.017 116 C 54.813 155.316, 45.859 197.792, 39.512 227.500 C 38.219 233.550, 36.863 239.968, 36.498 241.763 L 35.835 245.026 70.634 244.763 L 105.434 244.500 106.625 240 C 107.280 237.525, 111.484 218.175, 115.967 197 C 120.451 175.825, 124.478 157.825, 124.917 157 C 125.591 155.735, 130.464 155.422, 156.072 155 L 186.428 154.500 188.651 143 C 189.873 136.675, 190.902 130.713, 190.937 129.750 C 190.996 128.121, 188.923 128, 160.872 128 L 130.744 128 131.413 123.750 C 132.180 118.877, 143.783 65.135, 144.472 63.262 C 144.822 62.312, 154.089 61.962, 184.207 61.762 L 223.486 61.500 225.876 48.641 C 227.745 38.583, 227.993 35.614, 227.019 35.011 C 225.481 34.061, 131.035 34.073, 114.500 35.025 M 243.069 79.750 C 242.100 83.356, 237.933 102.766, 228.526 147.500 C 226.097 159.050, 222.005 178.175, 219.433 190 C 208.182 241.723, 211.352 245, 272.636 245 C 304.706 245, 306.998 245.117, 306.976 246.750 C 306.954 248.287, 306.281 251.784, 304.476 259.737 L 303.969 261.973 270.734 262.237 L 237.500 262.500 235.421 271 C 234.278 275.675, 233.049 280.977, 232.690 282.783 L 232.037 286.065 286.768 285.783 L 341.500 285.500 347 282.903 C 364.724 274.533, 367.849 267.666, 379.035 212.500 C 382.380 196, 386.923 174.175, 389.129 164 C 391.335 153.825, 394.436 139.200, 396.021 131.500 C 397.605 123.800, 400.721 108.950, 402.946 98.500 C 405.170 88.050, 406.993 78.713, 406.995 77.750 C 407 76.120, 404.834 76, 375.475 76 L 343.950 76 343.095 78.250 C 342.625 79.487, 339.902 91.975, 337.045 106 C 334.188 120.025, 331.441 133.095, 330.942 135.045 C 330.442 136.995, 328.686 145.095, 327.038 153.045 C 325.391 160.995, 323.358 170.650, 322.520 174.500 C 321.682 178.350, 319.645 188.025, 317.993 196 C 316.342 203.975, 314.430 212.750, 313.745 215.500 L 312.500 220.500 295.250 220.774 C 282.467 220.976, 278 220.740, 278 219.862 C 278 219.210, 279.781 210.312, 281.958 200.089 C 294.755 139.993, 306.041 86.609, 307.610 78.750 L 308.159 76 276.118 76 L 244.077 76 243.069 79.750 M 460 76.692 C 440.469 79.970, 436.103 86.695, 427.642 126.539 C 417.409 174.731, 403 243.587, 403 244.296 C 403 244.683, 417.383 245, 434.961 245 L 466.923 245 467.903 241.250 C 468.442 239.188, 473.224 217.250, 478.529 192.500 C 492.289 128.301, 493.962 120.396, 495.559 112 C 496.344 107.875, 497.223 103.487, 497.512 102.250 L 498.038 100 529.452 100 C 558.494 100, 560.906 99.868, 561.412 98.250 C 561.933 96.582, 566 77.205, 566 76.390 C 566 75.866, 463.177 76.159, 460 76.692 M 599.994 77.423 C 593.927 79.100, 591.506 80.492, 586.266 85.322 C 578.998 92.022, 577.393 96.119, 572.491 120.500 C 571.053 127.650, 566.998 147, 563.479 163.500 C 550.226 225.640, 550.052 229.693, 560.257 238.653 C 567.079 244.643, 565.110 244.500, 640.988 244.500 L 710.476 244.500 712.200 235.500 C 713.149 230.550, 713.942 225.262, 713.962 223.750 L 714 221 665 221 C 638.050 221, 616 220.636, 616 220.190 C 616 218.082, 620.350 202.352, 621.238 201.250 C 622.019 200.281, 633.212 200, 671.063 200 C 697.914 200, 720.122 199.611, 720.416 199.136 C 720.709 198.662, 722.119 192.249, 723.548 184.886 C 724.977 177.524, 729.489 155.391, 733.573 135.702 C 746.687 72.489, 750.760 75.957, 663.568 76.089 C 619.769 76.156, 603.335 76.501, 599.994 77.423 M 641.501 102.250 C 641.026 104.240, 627.849 166.214, 626.405 173.250 L 625.841 176 643.235 176 L 660.628 176 663.290 164.250 C 667.909 143.861, 676 104.299, 676 102.106 C 676 98.682, 642.319 98.823, 641.501 102.250" stroke="none" fill="#f9f863" fill-rule="evenodd"/></svg>